<?xml version="1.0" encoding="UTF-8" standalone="no"?>
<svg
   xmlns:dc="http://purl.org/dc/elements/1.1/"
   xmlns:cc="http://creativecommons.org/ns#"
   xmlns:rdf="http://www.w3.org/1999/02/22-rdf-syntax-ns#"
   xmlns:svg="http://www.w3.org/2000/svg"
   xmlns="http://www.w3.org/2000/svg"
   xmlns:sodipodi="http://sodipodi.sourceforge.net/DTD/sodipodi-0.dtd"
   xmlns:inkscape="http://www.inkscape.org/namespaces/inkscape"
   width="300"
   height="78"
   viewBox="0 0 1000 257"
   version="1.0"
   id="svg2"
   sodipodi:version="0.32"
   inkscape:version="0.46"
   sodipodi:docname="1000px-Axis_Bank_Logo.svg"
   inkscape:output_extension="org.inkscape.output.svg.inkscape">
  <metadata
     id="metadata28">
    <rdf:RDF>
      <cc:Work
         rdf:about="">
        <dc:format>image/svg+xml</dc:format>
        <dc:type
           rdf:resource="http://purl.org/dc/dcmitype/StillImage" />
      </cc:Work>
    </rdf:RDF>
  </metadata>
  <defs
     id="defs26">
    <inkscape:perspective
       sodipodi:type="inkscape:persp3d"
       inkscape:vp_x="0 : 160.625 : 1"
       inkscape:vp_y="0 : 1000 : 0"
       inkscape:vp_z="1250 : 160.625 : 1"
       inkscape:persp3d-origin="625 : 107.08333 : 1"
       id="perspective30" />
  </defs>
  <sodipodi:namedview
     inkscape:window-height="669"
     inkscape:window-width="640"
     inkscape:pageshadow="2"
     inkscape:pageopacity="0.0"
     guidetolerance="10.0"
     gridtolerance="10.0"
     objecttolerance="10.0"
     borderopacity="1.0"
     bordercolor="#666666"
     pagecolor="#ffffff"
     id="base"
     showgrid="false"
     borderlayer="false"
     inkscape:showpageshadow="false"
     showborder="true"
     inkscape:zoom="0.61546574"
     inkscape:cx="401.35343"
     inkscape:cy="82.827844"
     inkscape:window-x="138"
     inkscape:window-y="95"
     inkscape:current-layer="svg2" />
  <g
     id="#ae285dff">
    <path
       d="M 142.27,10.47 C 156.13,34.28 170.11,58.02 183.82,81.92 C 161.66,121.01 139.82,160.29 116.91,198.95 C 108.12,213.79 99.57,228.77 90.88,243.66 C 62.7,243.83 34.52,243.82 6.34,243.78 C 7.2,241.85 8.05,239.91 9.09,238.07 C 53.46,162.19 98,86.41 142.27,10.47 z"
       id="path5"
       style="opacity:1;fill:#ae285d" />
    <path
       d="M 755.46,69 C 771.04,98.04 786.61,127.07 802.17,156.12 C 796.68,156.23 791.19,155.95 785.71,156.14 C 782.03,149.74 778.84,143.07 775.24,136.63 C 761.4,136.22 747.55,136.5 733.7,136.47 C 730.36,143.1 726.72,149.56 723.18,156.07 C 717.77,156.02 712.36,156.18 706.96,156.13 C 722.9,126.96 738.89,97.81 755.46,69 M 740.63,124.05 C 750.07,124.18 759.52,124.16 768.97,124.24 C 764.24,115.44 759.98,106.39 754.91,97.78 C 750.05,106.49 745.29,115.24 740.63,124.05 z"
       id="path7"
       style="opacity:1;fill:#ae285d" />
    <path
       d="M 811.25,68.66 C 834.77,89.1 858.29,109.55 881.52,130.33 C 882.16,111.58 881.44,92.83 882.01,74.08 C 887.04,74.18 892.07,74.26 897.1,74.35 C 896.94,103.23 897.02,132.12 896.99,161 C 881.54,148.15 866.7,134.58 851.44,121.49 C 842.95,114.23 834.54,106.89 826.43,99.22 C 826.23,118.21 826.52,137.21 826.11,156.2 C 821.11,156.22 816.11,156.09 811.12,156.13 C 811.16,126.97 810.91,97.82 811.25,68.66 z"
       id="path9"
       style="opacity:1;fill:#ae285d" />
    <path
       d="M 314.14,156.01 C 330.39,127 346.22,97.76 362.84,68.97 C 378.32,98.04 393.89,127.07 409.55,156.04 C 403.98,156.17 398.42,156.16 392.85,156.05 C 389.47,149.56 386.01,143.11 382.78,136.54 C 368.89,136.36 355.01,136.51 341.12,136.51 C 337.5,143.06 334.23,149.82 330.32,156.21 C 324.92,156.06 319.53,156.17 314.14,156.01 M 347.87,124.13 C 357.36,124.09 366.86,124.22 376.36,124.19 C 371.58,115.44 367.38,106.38 362.25,97.82 C 357.42,106.58 352.65,115.35 347.87,124.13 z"
       id="path11"
       style="opacity:1;fill:#ae285d" />
    <path
       d="M 545.39,76.49 C 553.33,72.58 562.63,72.07 571.22,73.8 C 578.66,75.37 584.64,80.66 589.18,86.52 C 585.15,88.56 581.15,90.63 577.19,92.8 C 571.85,84.45 559.14,81.79 551.39,88.3 C 547.28,91.24 547.61,98.48 552.25,100.72 C 562.65,106.45 575.3,107.68 584.52,115.61 C 593.92,123.58 593.56,139.51 584.85,147.87 C 575.5,157.35 560.69,159.41 548.26,155.86 C 537.85,153.23 530.02,143.66 528.63,133.14 C 533.66,132.04 538.74,131.13 543.83,130.34 C 544.44,135.27 546.31,140.7 550.96,143.18 C 558.32,147.13 568.99,146.14 574.07,139.01 C 577.65,134.16 576.59,126.71 571.7,123.16 C 561.48,116.31 547.91,115.89 538.74,107.26 C 533.9,103.14 531.89,96.26 533.54,90.15 C 534.85,83.92 539.94,79.31 545.39,76.49 z"
       id="path13"
       style="opacity:1;fill:#ae285d" />
    <path
       d="M 414.41,74.65 C 420.12,73.9 425.89,74.16 431.63,74.22 C 437.77,83.36 443.9,92.5 450.05,101.63 C 456.52,92.61 462.81,83.46 469.19,74.38 C 475.08,74.19 480.97,74.09 486.86,74.27 C 477.52,87.26 468.12,100.22 458.76,113.2 C 468.29,127.65 478.69,141.53 488,156.13 C 482.39,156.16 476.78,156.11 471.17,156.06 C 464.03,145.79 456.94,135.48 449.8,125.21 C 442.42,135.52 434.98,145.78 427.69,156.15 C 422.01,156.26 416.32,156.18 410.64,156.19 C 420.52,141.71 430.92,127.6 441.19,113.39 C 432.36,100.41 423.36,87.55 414.41,74.65 z"
       id="path15"
       style="opacity:1;fill:#ae285d" />
    <path
       d="M 500.7,74.29 C 505.76,74.14 510.81,74.15 515.87,74.26 C 515.9,101.55 515.88,128.84 515.88,156.13 C 510.74,156.14 505.61,156.13 500.47,156.13 C 500.66,128.85 500.57,101.57 500.7,74.29 z"
       id="path17"
       style="opacity:1;fill:#ae285d" />
    <path
       d="M 648.34,74.22 C 661.32,74.78 675.32,72.43 687.28,78.79 C 698.94,85.03 701.63,103.54 690.88,111.92 C 697.65,114.59 704.2,119.62 705.98,127.03 C 708.83,136.12 703.8,146.18 695.85,150.89 C 681.36,158.85 664.29,155.14 648.56,156.22 C 648.07,128.89 648.38,101.56 648.34,74.22 M 663.4,86 C 663.43,93.8 663.41,101.59 663.36,109.38 C 669,109.15 675.25,109.49 680.06,106.01 C 684.97,101.64 684.79,92.59 679.37,88.7 C 674.63,85.7 668.78,86.04 663.4,86 M 663.49,120.09 C 663.43,128.04 663.46,136 663.61,143.95 C 671.18,143.55 679.33,144.95 686.31,141.2 C 692.5,138.16 693.64,128.22 687.89,124.16 C 680.96,118.78 671.66,120.26 663.49,120.09 z"
       id="path19"
       style="opacity:1;fill:#ae285d" />
    <path
       d="M 914.58,74.22 C 919.62,74.18 924.66,74.2 929.71,74.21 C 929.73,84.99 929.61,95.78 929.84,106.57 C 942.26,95.64 954.92,84.99 967.41,74.15 C 974.31,74.19 981.21,74.22 988.11,74.2 C 973.21,86.42 958.43,98.77 943.79,111.29 C 958.19,126.49 973.11,141.18 987.84,156.06 C 981,155.99 974.15,156.53 967.34,155.74 C 955.62,143.78 943.98,131.75 932.37,119.69 C 931.52,120.81 930.68,121.93 929.85,123.05 C 929.55,134.08 929.82,145.1 929.63,156.13 C 924.56,156.1 919.49,156.23 914.43,156.2 C 914.47,128.88 914.54,101.55 914.58,74.22 z"
       id="path21"
       style="opacity:1;fill:#ae285d" />
    <path
       d="M 142.28,155.63 C 170.56,155.62 198.84,155.42 227.12,155.89 C 243.96,185.25 261.34,214.29 278.03,243.73 C 249.75,243.87 221.48,243.76 193.2,243.74 C 176.37,214.28 158.79,185.27 142.28,155.63 z"
       id="path23"
       style="opacity:1;fill:#ae285d" />
  </g>
</svg>
