<svg width="299" height="299" viewBox="0 0 299 299" fill="none" xmlns="http://www.w3.org/2000/svg">
<g filter="url(#filter0_d_332_2587)">
<rect x="81" y="67" width="137" height="137" rx="68.5" fill="white"/>
</g>
<path d="M120 138.333H123.333V161.667C123.333 165.343 126.323 168.333 130 168.333H170C173.676 168.333 176.666 165.343 176.666 161.667V138.333H180C180.659 138.333 181.303 138.138 181.851 137.771C182.399 137.405 182.826 136.885 183.079 136.276C183.331 135.667 183.397 134.996 183.268 134.35C183.14 133.703 182.822 133.11 182.356 132.643L152.356 102.643C151.731 102.018 150.883 101.667 150 101.667C149.116 101.667 148.268 102.018 147.643 102.643L117.643 132.643C117.177 133.11 116.86 133.703 116.731 134.35C116.602 134.996 116.668 135.667 116.921 136.276C117.173 136.885 117.6 137.405 118.148 137.771C118.696 138.138 119.34 138.333 120 138.333ZM143.333 161.667V145H156.666V161.667H143.333ZM150 109.713L170 129.713V145L170.003 161.667H163.333V145C163.333 141.323 160.343 138.333 156.666 138.333H143.333C139.656 138.333 136.666 141.323 136.666 145V161.667H130V129.713L150 109.713Z" fill="#0A3792"/>
<defs>
<filter id="filter0_d_332_2587" x="0.699997" y="0.699997" width="297.6" height="297.6" filterUnits="userSpaceOnUse" color-interpolation-filters="sRGB">
<feFlood flood-opacity="0" result="BackgroundImageFix"/>
<feColorMatrix in="SourceAlpha" type="matrix" values="0 0 0 0 0 0 0 0 0 0 0 0 0 0 0 0 0 0 127 0" result="hardAlpha"/>
<feOffset dy="14"/>
<feGaussianBlur stdDeviation="40.15"/>
<feComposite in2="hardAlpha" operator="out"/>
<feColorMatrix type="matrix" values="0 0 0 0 0 0 0 0 0 0 0 0 0 0 0 0 0 0 0.25 0"/>
<feBlend mode="normal" in2="BackgroundImageFix" result="effect1_dropShadow_332_2587"/>
<feBlend mode="normal" in="SourceGraphic" in2="effect1_dropShadow_332_2587" result="shape"/>
</filter>
</defs>
</svg>
