<?xml version="1.0" encoding="utf-8"?>
<!-- Generator: Adobe Illustrator 25.4.1, SVG Export Plug-In . SVG Version: 6.00 Build 0)  -->
<svg version="1.0" id="Layer_1" xmlns="http://www.w3.org/2000/svg" xmlns:xlink="http://www.w3.org/1999/xlink" x="0px" y="0px"
	 viewBox="0 0 885.4 626.7" style="enable-background:new 0 0 885.4 626.7;" xml:space="preserve">
<style type="text/css">
	.st0{fill:#9D1D27;}
	.st1{fill:#FEFEFE;}
</style>
<path class="st0" d="M76.4,444H809V182.7H76.4V444z"/>
<path class="st1" d="M131.3,237.8h150.2v150.6H131.3L131.3,237.8L131.3,237.8z M294.2,225.1H118.7V401h175.4V225.1z"/>
<path class="st1" d="M147.9,283.7h117v-29.3h-117V283.7z M147.9,371.7h29.2v-29.4h-29.2V371.7z M147.9,327.7h73v-29.4h-73V327.7z"/>
<path class="st1" d="M368.4,264.4v37.9h10.5c11.5,0,14.2-4.4,14.2-19.1c0-15.7-1.7-18.8-15.5-18.8H368.4z M380.5,254.5
	c18.1,0,24.6,7.9,24.6,28.5c0,19.9-6.9,29.1-24.7,29.1h-23.9v-57.6L380.5,254.5L380.5,254.5z M333.5,312.1h11.9v-57.6h-11.9
	L333.5,312.1z M414.4,254.5h40.4v9.9h-28.6v13.5h25v9.9h-25v24.4h-11.9L414.4,254.5z M510.2,293.2c-0.8,11.3-7,20.3-24.8,20.3
	c-17.3,0-26.1-8.6-26.1-29.8c0-20.8,8.3-30.4,26.1-30.4c14.1,0,22.8,6,24.7,19.2h-11.9c-1.4-5.1-3-9.1-12.8-9.1s-14.1,5.9-14.1,21.3
	c0,12,3.2,18.7,14.3,18.7c8,0,11.7-2.5,12.7-10.1H510.2z M541.8,254.5h40.4v9.9h-28.5v13.5h25v9.9h-25v24.4h-11.9L541.8,254.5z
	 M590,312.1h11.9v-57.6H590L590,312.1z M624.9,264.4v15.2h10.7c9.5,0,12.8-1,12.8-8.2c0-5.8-2-7-12-7L624.9,264.4z M613,254.5h25
	c12,0,22.4,0.3,22.4,17.3c0,11.3-4.7,15.4-11.2,17l15,23.4h-14.5l-14.1-22.7h-10.7v22.7H613V254.5L613,254.5z M679.1,294
	c0.5,6,1.4,9.2,12.8,9.2c6,0,10.4-0.9,10.4-6.8c0-3.5-1.6-5.5-6.7-6.8l-14-3.8c-7-1.9-13.2-5.2-13.2-15.8c0-8.3,3.8-17,21.6-17
	c16.9,0,22.2,7.9,22.5,18.2h-11.8c-0.6-4.8-0.8-8-11.1-8c-6,0-9.1,1.1-9.1,5.7c0,4.2,2.5,5.4,5.8,6.3l12.8,3.5
	c8.2,2.2,15.1,5.4,15.1,16.9c0,16.2-13.9,17.8-22.5,17.8c-18.8,0-23.9-7.4-24.6-19.4L679.1,294z M734.5,264.6h-17.3v-10.1h46.5v10.1
	h-17.2v47.5h-11.9V264.6z M345.4,373.3v15.2h10.7c10.8,0,13.2-0.8,13.2-7.4c0-6.9-2.2-7.8-10.9-7.8L345.4,373.3z M345.4,350.6v12.8
	h13.3c7.1,0,8.9-0.9,8.9-6.8c0-4.8-1.1-6-11.1-6L345.4,350.6z M361.6,340.7c11.3,0,17.5,4,17.5,15c0,8.9-4.1,10.8-6.6,11.8
	c7.1,2.8,8.8,8.2,8.8,14.2c0,9.5-4.3,16.6-20.2,16.6h-27.6v-57.7L361.6,340.7z M414.2,378.8l-7.8,1.3c-4.3,0.6-7.3,1.5-7.3,6
	c0,3.2,1.6,5,6.6,5c6.8,0,8.5-3.7,8.5-8.9V378.8z M389.2,368.8c0.6-10.9,6.8-13.9,18.2-13.9c11.7,0,17.9,3.1,17.9,12.4v31h-10.6
	v-3.2c-2.2,2.2-6.3,4.3-13,4.3c-10.1,0-13.7-4.5-13.7-11.7c0-9.4,6.1-13,12.3-13.9l14-2.2V369c0-4-2-5.1-7.2-5.1
	c-5.5,0-6.7,1.3-7.2,4.9L389.2,368.8L389.2,368.8z M462.3,374c0-6.5-0.1-9.9-7.2-9.9c-8,0-8.8,4.2-8.8,14.2v20.1h-11.1V356h10.6v5.5
	c3-4.1,6.3-6.5,14.1-6.5c10.8,0,13.6,4.7,13.6,17.5v25.9h-11.2L462.3,374L462.3,374z M484.2,340.7h11.1v31l13.7-15.7h13.7
	l-14.8,16.1l15.4,26.3h-12.9l-10.3-18.4l-4.8,5v13.4h-11.2L484.2,340.7z"/>
</svg>
