<svg width="80" height="80" viewBox="0 0 80 80" fill="none" xmlns="http://www.w3.org/2000/svg">
<path d="M10 36.6667C10 24.0967 10 17.81 13.9067 13.9067C17.8133 10.0033 24.0967 10 36.6667 10H43.3333C55.9033 10 62.19 10 66.0933 13.9067C69.9967 17.8133 70 24.0967 70 36.6667V43.3333C70 55.9033 70 62.19 66.0933 66.0933C62.1867 69.9967 55.9033 70 43.3333 70H36.6667C24.0967 70 17.81 70 13.9067 66.0933C10.0033 62.1867 10 55.9033 10 43.3333V36.6667Z" stroke="white" stroke-width="3"/>
<path d="M55 30C57.7614 30 60 27.7614 60 25C60 22.2386 57.7614 20 55 20C52.2386 20 50 22.2386 50 25C50 27.7614 52.2386 30 55 30Z" fill="white"/>
<path d="M39.9997 51.6666C46.443 51.6666 51.6663 46.4432 51.6663 39.9999C51.6663 33.5566 46.443 28.3333 39.9997 28.3333C33.5564 28.3333 28.333 33.5566 28.333 39.9999C28.333 46.4432 33.5564 51.6666 39.9997 51.6666Z" stroke="white" stroke-width="3"/>
</svg>
