<svg width="80" height="80" viewBox="0 0 80 80" fill="none" xmlns="http://www.w3.org/2000/svg">
<path d="M63.3333 10C65.1014 10 66.7971 10.7024 68.0474 11.9526C69.2976 13.2029 70 14.8986 70 16.6667V63.3333C70 65.1014 69.2976 66.7971 68.0474 68.0474C66.7971 69.2976 65.1014 70 63.3333 70H16.6667C14.8986 70 13.2029 69.2976 11.9526 68.0474C10.7024 66.7971 10 65.1014 10 63.3333V16.6667C10 14.8986 10.7024 13.2029 11.9526 11.9526C13.2029 10.7024 14.8986 10 16.6667 10H63.3333ZM61.6667 61.6667V44C61.6667 41.118 60.5218 38.354 58.4839 36.3161C56.446 34.2782 53.682 33.1333 50.8 33.1333C47.9667 33.1333 44.6667 34.8667 43.0667 37.4667V33.7667H33.7667V61.6667H43.0667V45.2333C43.0667 42.6667 45.1333 40.5667 47.7 40.5667C48.9377 40.5667 50.1247 41.0583 50.9998 41.9335C51.875 42.8087 52.3667 43.9957 52.3667 45.2333V61.6667H61.6667ZM22.9333 28.5333C24.4185 28.5333 25.8429 27.9433 26.8931 26.8931C27.9433 25.8429 28.5333 24.4185 28.5333 22.9333C28.5333 19.8333 26.0333 17.3 22.9333 17.3C21.4393 17.3 20.0064 17.8935 18.95 18.95C17.8935 20.0064 17.3 21.4393 17.3 22.9333C17.3 26.0333 19.8333 28.5333 22.9333 28.5333ZM27.5667 61.6667V33.7667H18.3333V61.6667H27.5667Z" fill="white"/>
</svg>
