<svg width="299" height="299" viewBox="0 0 299 299" fill="none" xmlns="http://www.w3.org/2000/svg">
<g filter="url(#filter0_d_332_2591)">
<rect x="81" y="67" width="137" height="137" rx="68.5" fill="white"/>
</g>
<path d="M150.001 125C156.444 125 161.667 119.777 161.667 113.333C161.667 106.89 156.444 101.667 150.001 101.667C143.557 101.667 138.334 106.89 138.334 113.333C138.334 119.777 143.557 125 150.001 125Z" stroke="#0A3792" stroke-width="6" stroke-linecap="round" stroke-linejoin="round"/>
<path d="M116.667 163.333C116.667 148.605 130.099 136.667 146.667 136.667M163.084 141.667C159.54 141.667 156.667 145.015 156.667 149.143C156.667 156.622 164.25 163.418 168.334 165C172.417 163.418 180 156.622 180 149.143C180 145.017 177.127 141.667 173.584 141.667C171.414 141.667 169.495 142.922 168.334 144.843C167.172 142.922 165.254 141.667 163.084 141.667Z" stroke="#0A3792" stroke-width="6" stroke-linecap="round" stroke-linejoin="round"/>
<defs>
<filter id="filter0_d_332_2591" x="0.699997" y="0.699997" width="297.6" height="297.6" filterUnits="userSpaceOnUse" color-interpolation-filters="sRGB">
<feFlood flood-opacity="0" result="BackgroundImageFix"/>
<feColorMatrix in="SourceAlpha" type="matrix" values="0 0 0 0 0 0 0 0 0 0 0 0 0 0 0 0 0 0 127 0" result="hardAlpha"/>
<feOffset dy="14"/>
<feGaussianBlur stdDeviation="40.15"/>
<feComposite in2="hardAlpha" operator="out"/>
<feColorMatrix type="matrix" values="0 0 0 0 0 0 0 0 0 0 0 0 0 0 0 0 0 0 0.25 0"/>
<feBlend mode="normal" in2="BackgroundImageFix" result="effect1_dropShadow_332_2591"/>
<feBlend mode="normal" in="SourceGraphic" in2="effect1_dropShadow_332_2591" result="shape"/>
</filter>
</defs>
</svg>
