<svg width="560" height="220" viewBox="0 0 280 110" fill="none" xmlns="http://www.w3.org/2000/svg">
  <path d="M53.68 107.884 7.804 78.019s-5.753-3.308-7.07-9.47c-1.85-8.652 4.248-16.07 4.248-16.07l59.539 38.775c4.593 2.993 5.846 9.117 2.894 13.736-3.033 4.745-9.265 5.792-13.737 2.894Z" fill="#38D200"/>
  <path d="M10.227 46.079S3.2 41.836 3.2 32.022c0-9.78 7.024-13.971 7.024-13.971l25.08-16.414a9.927 9.927 0 0 1 10.82 16.645L24.986 32.046l36.015 23.456s6.483 3.714 7.76 9.984c1.783 8.747-4.238 15.954-4.238 15.954L10.227 46.079Zm-.133 63.388c2.354 0 4.03-.747 5.665-1.807l12.243-7.975-12.243-7.973c-1.65-1.063-3.382-1.807-5.665-1.807a9.782 9.782 0 1 0 0 19.562Z" fill="#0473EA"/>
  <path d="M57.433 22.266c-2.355 0-4.031.747-5.666 1.806l-12.244 7.974 12.244 7.974c1.65 1.064 3.383 1.808 5.666 1.808a9.781 9.781 0 1 0 0-19.562" fill="#38D200"/>
  <path d="M108.368 78.42c2.589 0 5.003-.702 6.889-2.326v3.642c-2.107 1.448-4.608 2.062-7.241 2.062-6.63 0-11.234-4.608-11.234-11.234 0-6.583 4.739-11.19 11.322-11.19 2.589 0 5.002.747 6.933 2.194v3.993c-1.711-1.842-4.08-2.808-6.714-2.808-4.608 0-7.855 3.204-7.855 7.81 0 4.608 3.292 7.857 7.9 7.857Zm14.393 2.984h-3.555V52.912l3.555 2.197v8.347c1.624-2.501 4.213-4.08 7.504-4.08 5.442 0 8.338 3.992 8.338 9.302v12.726h-3.598V69.292c0-4.213-1.843-6.45-5.618-6.45-3.993 0-6.629 3.422-6.629 7.723l.003 10.84Zm37.915-3.689c-1.798 2.545-4.563 4.081-7.942 4.081-6.319 0-10.839-4.695-10.839-11.102 0-6.536 4.52-11.322 10.839-11.322 3.379 0 6.144 1.58 7.942 4.17v-3.775h3.599v21.634h-3.599v-3.686Zm-15.095-7.065c0 4.476 3.116 7.767 7.504 7.767 4.432 0 7.591-3.291 7.591-7.767 0-4.564-3.159-7.899-7.591-7.899-4.388.003-7.504 3.337-7.504 7.902v-.003Zm27.778 10.754h-3.555V59.77h3.555v4.607c1.711-3.204 4.476-5.002 7.899-5.002v4.081c-4.301-.614-7.899 2.282-7.899 7.635v10.313Zm44.322-9.435H200.61c.527 3.906 3.599 6.495 7.899 6.495 2.765 0 5.442-.79 7.724-2.414v3.423c-2.326 1.58-4.959 2.326-7.724 2.326-6.802 0-11.671-4.388-11.671-11.018 0-6.495 4.125-11.409 10.664-11.409 6.231 0 10.313 4.607 10.313 10.795.001.603-.044 1.206-.134 1.802Zm-17.027-2.894h13.385c-.351-3.687-2.677-6.407-6.495-6.407-3.95-.002-6.32 2.763-6.89 6.405v.002Zm24.619 12.329h-3.555V59.77h3.555v4.607c1.711-3.204 4.475-5.002 7.898-5.002v4.081c-4.299-.614-7.898 2.282-7.898 7.635v10.313Zm29.007-9.435h-17.07c.525 3.906 3.598 6.495 7.898 6.495 2.765 0 5.442-.79 7.724-2.414v3.423c-2.326 1.58-4.959 2.326-7.724 2.326-6.802 0-11.671-4.388-11.671-11.018 0-6.495 4.124-11.409 10.663-11.409 6.231 0 10.312 4.607 10.312 10.795a11.94 11.94 0 0 1-.132 1.802Zm-17.026-2.894h13.383c-.351-3.687-2.677-6.407-6.494-6.407-3.949-.002-6.317 2.763-6.889 6.405v.002Zm38.364 8.614c-1.754 2.59-4.563 4.169-7.942 4.169-6.32 0-10.84-4.696-10.84-11.103 0-6.536 4.52-11.322 10.84-11.322 3.379 0 6.188 1.625 7.942 4.257V52.917l3.599 2.198v26.288h-3.599V77.69Zm-15.095-6.977c0 4.476 3.115 7.768 7.504 7.768 4.432 0 7.591-3.292 7.591-7.768 0-4.564-3.159-7.899-7.591-7.899-4.389 0-7.504 3.334-7.504 7.9Zm-73.054 3.501c0 3.028 1.843 4.213 4.169 4.213a8.584 8.584 0 0 0 5.047-1.58v3.467c-1.494 1.097-3.555 1.536-5.354 1.536-4.608 0-7.417-2.063-7.417-7.9V52.907l3.555 2.197v19.109Zm5.746-14.726a2.745 2.745 0 0 0-2.988 4.606l.076.048a2.742 2.742 0 0 0 2.958 0l3.535-2.267-3.581-2.387Zm-89.016-12.265c2.544 0 4.388-1.097 4.388-3.072 0-1.185-.614-2.106-2.241-2.765l-5.135-2.062c-2.633-1.141-4.081-2.633-4.081-5.442 0-3.774 3.028-6.144 7.416-6.144 2.544 0 4.914.702 6.582 1.975v3.735c-1.974-1.756-4.389-2.765-6.536-2.765-2.283 0-3.907 1.053-3.907 2.809 0 1.316.615 2.106 2.327 2.764l5.135 2.063c2.764 1.185 4.038 2.852 4.038 5.178 0 4.125-3.336 6.67-8.03 6.67-2.854 0-5.443-.79-7.329-2.193v-3.867c2.281 2.15 4.827 3.116 7.373 3.116Zm14.745-4.696c0 3.028 1.842 4.213 4.169 4.213a8.59 8.59 0 0 0 5.042-1.58v3.467c-1.494 1.097-3.556 1.536-5.355 1.536-4.608 0-7.415-2.062-7.415-7.899V23.402l3.554-2.2.005 21.324Zm29.094 3.554c-1.799 2.546-4.564 4.082-7.943 4.082-6.319 0-10.839-4.695-10.839-11.103 0-6.536 4.52-11.322 10.839-11.322 3.379 0 6.144 1.58 7.943 4.17v-3.772h3.599v21.632h-3.599v-3.686Zm-15.096-7.064c0 4.476 3.116 7.767 7.504 7.767 4.433 0 7.592-3.291 7.592-7.767 0-4.564-3.159-7.9-7.592-7.9-4.388 0-7.504 3.336-7.504 7.9Zm27.778 10.751h-3.555V28.135h3.555v3.686c1.624-2.501 4.213-4.081 7.504-4.081 5.442 0 8.338 3.994 8.338 9.304V49.77h-3.598V37.659c0-4.213-1.843-6.451-5.617-6.451-3.994 0-6.63 3.423-6.63 7.724l.003 10.835Zm37.916-3.774c-1.755 2.59-4.564 4.17-7.943 4.17-6.319 0-10.839-4.696-10.839-11.104 0-6.536 4.52-11.322 10.839-11.322 3.379 0 6.188 1.624 7.943 4.257v-8.595l3.599-2.197v28.565h-3.599v-3.774Zm-15.096-6.977c0 4.476 3.116 7.767 7.504 7.767 4.433 0 7.592-3.291 7.592-7.767 0-4.564-3.159-7.9-7.592-7.9-4.385 0-7.504 3.336-7.504 7.9Zm80.923 6.977c-1.755 2.59-4.564 4.17-7.943 4.17-6.32 0-10.84-4.696-10.84-11.104 0-6.536 4.52-11.322 10.84-11.322 3.379 0 6.188 1.624 7.943 4.257v-8.595l3.598-2.197v28.565h-3.598v-3.774Zm-15.096-6.977c0 4.476 3.115 7.767 7.504 7.767 4.432 0 7.592-3.291 7.592-7.767 0-4.564-3.16-7.9-7.592-7.9-4.386 0-7.504 3.336-7.504 7.9Zm-24.488 7.064c-1.799 2.546-4.564 4.082-7.943 4.082-6.319 0-10.839-4.695-10.839-11.103 0-6.536 4.52-11.322 10.839-11.322 3.379 0 6.144 1.58 7.943 4.17v-3.772h3.599v21.632h-3.599v-3.686Zm-15.096-7.064c0 4.476 3.116 7.767 7.504 7.767 4.432 0 7.592-3.291 7.592-7.767 0-4.564-3.16-7.9-7.592-7.9-4.391 0-7.504 3.336-7.504 7.9Zm27.778 10.751h-3.555V28.135h3.555v4.608c1.711-3.204 4.476-5.003 7.899-5.003v4.081c-4.301-.614-7.899 2.282-7.899 7.636v10.31ZM123.954 32.743a2.747 2.747 0 0 0 4.203-1.809 2.738 2.738 0 0 0-.45-2.06 2.744 2.744 0 0 0-.775-.744l-.076-.047a2.743 2.743 0 0 0-2.958.01l-3.533 2.275 3.589 2.375Z" fill="#525355"/>
</svg>
