<svg width="80" height="80" viewBox="0 0 80 80" fill="none" xmlns="http://www.w3.org/2000/svg">
<path d="M74.8671 19.9999C72.3005 21.1666 69.5338 21.9333 66.6671 22.2999C69.6005 20.5333 71.8671 17.7333 72.9338 14.3666C70.1671 16.0333 67.1005 17.1999 63.8671 17.8666C61.2338 14.9999 57.5338 13.3333 53.3338 13.3333C45.5005 13.3333 39.1005 19.7333 39.1005 27.6333C39.1005 28.7666 39.2338 29.8666 39.4671 30.8999C27.6005 30.2999 17.0338 24.5999 10.0005 15.9666C8.76712 18.0666 8.06712 20.5333 8.06712 23.1333C8.06712 28.0999 10.5671 32.4999 14.4338 34.9999C12.0671 34.9999 9.86712 34.3333 7.93379 33.3333V33.4333C7.93379 40.3666 12.8671 46.1666 19.4005 47.4666C17.3033 48.043 15.1006 48.1229 12.9671 47.6999C13.8725 50.5415 15.6456 53.0279 18.0372 54.8097C20.4288 56.5914 23.3186 57.5789 26.3005 57.6333C21.246 61.635 14.9805 63.7979 8.53379 63.7666C7.40046 63.7666 6.26712 63.6999 5.13379 63.5666C11.4671 67.6333 19.0005 69.9999 27.0671 69.9999C53.3338 69.9999 67.7671 48.1999 67.7671 29.2999C67.7671 28.6666 67.7671 28.0666 67.7338 27.4333C70.5338 25.4333 72.9338 22.8999 74.8671 19.9999Z" fill="white"/>
</svg>
